<svg xmlns="http://www.w3.org/2000/svg" xmlns:xlink="http://www.w3.org/1999/xlink" width="1920" height="1080" viewBox="0 0 1920 1080">
  <defs>
    <filter id="path16" x="600.651" y="442.201" width="217.948" height="217.95" filterUnits="userSpaceOnUse">
      <feOffset dy="5" input="SourceAlpha"/>
      <feGaussianBlur stdDeviation="7.5" result="blur"/>
      <feFlood flood-opacity="0.161"/>
      <feComposite operator="in" in2="blur"/>
      <feComposite in="SourceGraphic"/>
    </filter>
    <filter id="OWASP" x="877" y="422" width="466" height="212" filterUnits="userSpaceOnUse">
      <feOffset dy="3" input="SourceAlpha"/>
      <feGaussianBlur stdDeviation="3" result="blur-2"/>
      <feFlood flood-opacity="0.161"/>
      <feComposite operator="in" in2="blur-2"/>
      <feComposite in="SourceGraphic"/>
    </filter>
    <filter id="coimbatore" x="1074" y="586" width="264" height="78" filterUnits="userSpaceOnUse">
      <feOffset dy="3" input="SourceAlpha"/>
      <feGaussianBlur stdDeviation="3" result="blur-3"/>
      <feFlood flood-opacity="0.161"/>
      <feComposite operator="in" in2="blur-3"/>
      <feComposite in="SourceGraphic"/>
    </filter>
    <clipPath id="clip-Web_1920_1">
      <rect width="1920" height="1080"/>
    </clipPath>
  </defs>
  <g id="Web_1920_1" data-name="Web 1920 – 1" clip-path="url(#clip-Web_1920_1)">
    <rect width="1920" height="1080" fill="#fff"/>
    <g id="logo" transform="translate(586 409.244)">
      <g id="g10" transform="translate(0 261.507)">
        <g id="g12">
          <path id="path14" d="M130.75,0A130.751,130.751,0,0,1,0-130.751,130.751,130.751,0,0,1,130.75-261.5,130.751,130.751,0,0,1,261.5-130.751,130.752,130.752,0,0,1,130.75,0m0-241.379A110.629,110.629,0,0,0,20.122-130.752,110.629,110.629,0,0,0,130.749-20.124,110.629,110.629,0,0,0,241.375-130.752,110.628,110.628,0,0,0,130.749-241.379"/>
          <g transform="matrix(1, 0, 0, 1, -586, -670.75)" filter="url(#path16)">
            <path id="path16-2" data-name="path16" d="M173.213-38.1c-4.181,0-19.419-27.121-21.467-34.853-4.281-16.188-3.36-23.027-3.1-25.214.784-6.676,7.261-10.012,7.653-19.04.121-2.788,1.529-16.726,2.653-27.614a18.772,18.772,0,0,1-7.992-3.733c7.373,9.889-3.479,21.741-19.247,37.511C114.974-94.308,77.826-78.774,77.826-78.774s15.534-37.148,32.27-53.884c12.3-12.3,22.218-21.61,30.68-21.61a11.169,11.169,0,0,1,6.831,2.36,18.758,18.758,0,0,1-3.735-7.989c-10.888,1.127-24.828,2.532-27.614,2.655-9.029.392-12.366,6.869-19.038,7.652a32.373,32.373,0,0,1-4.23.264c-3.916,0-10.484-.589-20.985-3.369-8.409-2.224-39.744-20.049-34.2-22.289,2.826-1.144,11.833-1.917,23.7-1.917a313.514,313.514,0,0,1,39.179,2.5c17.11,2.229,32.8,5.049,43.492,7.147a12.988,12.988,0,0,1,.631-1.676l-10.931-5.239s-8.731-10.019-7.8-10.709a.224.224,0,0,1,.136-.04c1.369,0,8.354,7.985,9.026,8.895.517.172,3.479,1.16,6.593,2.2l-3.092-2.7s-4.232-15.673-3.129-16.043a.152.152,0,0,1,.044-.007c1.161,0,5,13.629,5.331,14.608.755.661,3.3,1.655,6.489,3.492l-3.349-8.616s1.516-14.215,2.651-14.215l.027,0c1.143.228-.224,11.856-.513,13.3l5.56,8.529a14.275,14.275,0,0,1,5.041-.892,17.079,17.079,0,0,1,6.081,1.156c-2.568-5.468-2.373-11.167,1.032-14.569a9.15,9.15,0,0,1,3.845-2.28,5.034,5.034,0,0,1,1.393-2.7,5.057,5.057,0,0,1,3.6-1.473,5.422,5.422,0,0,1,3.835,1.605,5.417,5.417,0,0,1,1.6,3.652c1.644-3.388,3.584-7.96,3.448-9.441-.316-3.352-4.2-9.285-4.24-9.345a.833.833,0,0,1,.237-1.155.828.828,0,0,1,.456-.136.826.826,0,0,1,.695.376c.172.256,4.156,6.339,4.511,10.105.2,2.155-2.276,7.584-3.624,10.357a24,24,0,0,1,5.424,4.089,24.021,24.021,0,0,1,4.089,5.424c2.668-1.3,7.787-3.635,10.095-3.635.092,0,.18,0,.263.011,3.765.355,9.849,4.339,10.1,4.508a.832.832,0,0,1,.237,1.153.832.832,0,0,1-.7.375.817.817,0,0,1-.455-.137c-.06-.039-5.992-3.925-9.345-4.239a1.571,1.571,0,0,0-.163-.007c-1.631,0-6.009,1.863-9.281,3.452a5.408,5.408,0,0,1,3.653,1.6,5.252,5.252,0,0,1,.132,7.427,5,5,0,0,1-2.693,1.4,9.2,9.2,0,0,1-2.281,3.847,10.067,10.067,0,0,1-7.3,2.779,17.312,17.312,0,0,1-7.269-1.747,15.736,15.736,0,0,1,.265,11.121c3.949,2.576,7.9,5.147,8.528,5.561a89.1,89.1,0,0,1,10.823-.963c1.421,0,2.417.12,2.481.445.231,1.141-14.209,2.683-14.209,2.683l-8.617-3.353c1.839,3.188,2.828,5.736,3.491,6.492,1,.333,14.968,4.272,14.6,5.375-.041.128-.287.183-.688.183-3.08,0-15.352-3.313-15.352-3.313l-2.707-3.092c1.039,3.116,2.024,6.075,2.2,6.593.947.7,9.543,8.227,8.853,9.161a.2.2,0,0,1-.176.07c-1.508,0-10.532-7.866-10.532-7.866l-5.24-10.932a12.86,12.86,0,0,1-1.677.631c2.1,10.692,4.919,26.381,7.151,43.491,3.645,27.993,2.825,57.329.585,62.876a.877.877,0,0,1-.827.653" transform="translate(586 670.75)"/>
          </g>
        </g>
      </g>
      <text id="text3771" transform="translate(214.247 255.205)" font-size="24" font-family="SegoeUI-Bold, Segoe UI" font-weight="700"><tspan x="0" y="0">TM</tspan></text>
    </g>
    <g transform="matrix(1, 0, 0, 1, 0, 0)" filter="url(#OWASP)">
      <text id="OWASP-2" data-name="OWASP" transform="translate(886 580)" font-size="136" font-family="Titillium-Bold, Titillium" font-weight="700"><tspan x="0" y="0">OWASP</tspan></text>
    </g>
    <g transform="matrix(1, 0, 0, 1, 0, 0)" filter="url(#coimbatore)">
      <text id="coimbatore-2" data-name="coimbatore" transform="translate(1083 639)" font-size="42" font-family="Titillium-Bold, Titillium" font-weight="700"><tspan x="0" y="0">COIMBATORE</tspan></text>
    </g>
  </g>
</svg>
