<svg xmlns="http://www.w3.org/2000/svg" xmlns:xlink="http://www.w3.org/1999/xlink" width="1920" height="763" viewBox="0 0 1920 763">
  <defs>
    <clipPath id="clip-Web_1920_2">
      <rect width="1920" height="763"/>
    </clipPath>
  </defs>
  <g id="Web_1920_2" data-name="Web 1920 – 2" clip-path="url(#clip-Web_1920_2)">
    <rect width="1920" height="763" fill="#2a2a2a"/>
    <g id="logo" transform="translate(563.834 243)">
      <g id="g10" transform="translate(0 0)">
        <g id="g12">
          <path id="path14" d="M138.5,15.5A138.5,138.5,0,0,1,0-123,138.5,138.5,0,0,1,138.5-261.5,138.5,138.5,0,0,1,277-123,138.5,138.5,0,0,1,138.5,15.5m0-255.685A117.185,117.185,0,0,0,21.314-123,117.186,117.186,0,0,0,138.5-5.818,117.185,117.185,0,0,0,255.681-123,117.185,117.185,0,0,0,138.5-240.187" transform="translate(0 261.502)" fill="#fff"/>
          <path id="path16" d="M181.277-27.85c-4.429,0-20.57-28.729-22.739-36.919C154-81.916,154.979-89.16,155.25-91.476c.83-7.072,7.692-10.605,8.107-20.169.129-2.953,1.62-17.718,2.811-29.251a19.885,19.885,0,0,1-8.466-3.955c7.81,10.475-3.685,23.03-20.388,39.734C119.586-87.389,80.236-70.935,80.236-70.935s16.455-39.35,34.182-57.078c13.032-13.03,23.535-22.891,32.5-22.891a11.831,11.831,0,0,1,7.235,2.5,19.87,19.87,0,0,1-3.956-8.463c-11.533,1.193-26.3,2.682-29.251,2.812-9.564.415-13.1,7.276-20.166,8.105a34.292,34.292,0,0,1-4.48.28c-4.148,0-11.105-.624-22.229-3.569-8.908-2.356-42.1-21.238-36.229-23.61,2.994-1.212,12.535-2.031,25.1-2.031a332.1,332.1,0,0,1,41.5,2.651c18.124,2.361,34.744,5.349,46.07,7.57a13.761,13.761,0,0,1,.668-1.775L139.6-171.983s-9.248-10.612-8.26-11.344a.237.237,0,0,1,.144-.042c1.45,0,8.849,8.459,9.561,9.422.548.182,3.685,1.229,6.984,2.326l-3.275-2.864s-4.483-16.6-3.315-16.993a.161.161,0,0,1,.047-.007c1.23,0,5.3,14.437,5.647,15.474.8.7,3.5,1.753,6.874,3.7l-3.548-9.127s1.606-15.057,2.808-15.057l.028,0c1.21.242-.237,12.559-.544,14.092l5.89,9.035a15.12,15.12,0,0,1,5.34-.945,18.091,18.091,0,0,1,6.442,1.225c-2.72-5.792-2.514-11.828,1.093-15.433a9.692,9.692,0,0,1,4.073-2.415,5.333,5.333,0,0,1,1.476-2.856,5.357,5.357,0,0,1,3.809-1.561,5.743,5.743,0,0,1,4.062,1.7,5.738,5.738,0,0,1,1.693,3.868c1.741-3.589,3.8-8.432,3.652-10-.335-3.551-4.453-9.836-4.491-9.9a.883.883,0,0,1,.251-1.223.877.877,0,0,1,.483-.144.875.875,0,0,1,.736.4c.182.271,4.4,6.714,4.778,10.7.209,2.282-2.411,8.033-3.839,10.971a25.424,25.424,0,0,1,5.745,4.332,25.444,25.444,0,0,1,4.332,5.745c2.826-1.374,8.248-3.85,10.693-3.85.1,0,.191,0,.278.011,3.988.376,10.433,4.6,10.7,4.775a.881.881,0,0,1,.251,1.222.882.882,0,0,1-.737.4.866.866,0,0,1-.482-.145c-.064-.041-6.347-4.158-9.9-4.49a1.663,1.663,0,0,0-.172-.007c-1.727,0-6.365,1.973-9.831,3.657a5.728,5.728,0,0,1,3.87,1.695,5.563,5.563,0,0,1,.14,7.867,5.3,5.3,0,0,1-2.853,1.479,9.75,9.75,0,0,1-2.417,4.075,10.664,10.664,0,0,1-7.734,2.943,18.338,18.338,0,0,1-7.7-1.85,16.668,16.668,0,0,1,.281,11.78c4.183,2.729,8.364,5.452,9.033,5.891a94.384,94.384,0,0,1,11.464-1.02c1.506,0,2.561.127,2.628.472.244,1.209-15.051,2.842-15.051,2.842l-9.128-3.552c1.948,3.377,3,6.076,3.7,6.877,1.055.353,15.855,4.525,15.465,5.693-.044.136-.3.193-.729.193-3.263,0-16.262-3.51-16.262-3.51l-2.867-3.275c1.1,3.3,2.144,6.435,2.329,6.984,1,.741,10.108,8.714,9.378,9.7a.216.216,0,0,1-.186.074c-1.6,0-11.156-8.332-11.156-8.332l-5.551-11.58a13.623,13.623,0,0,1-1.777.668c2.222,11.326,5.21,27.945,7.574,46.068,3.861,29.652,2.993,60.727.62,66.6a.929.929,0,0,1-.876.692" transform="translate(2.202 264.492)" fill="#fff"/>
        </g>
      </g>
      <text id="text3771" transform="translate(226.944 269.785)" fill="#fff" font-size="25" font-family="SegoeUI-Bold, Segoe UI" font-weight="700"><tspan x="0" y="0">TM</tspan></text>
    </g>
    <text id="OWASP" transform="translate(881.614 422.862)" fill="#fff" font-size="144" font-family="Titillium-Bold, Titillium" font-weight="700"><tspan x="0" y="0">OWASP</tspan></text>
    <text id="coimbatore" transform="translate(1090.29 485.582)" fill="#fff" font-size="44" font-family="Titillium-Bold, Titillium" font-weight="700"><tspan x="0" y="0">COIMBATORE</tspan></text>
  </g>
</svg>
